<svg t="1687182775185" class="icon" viewBox="0 0 1024 1024" version="1.1" xmlns="http://www.w3.org/2000/svg" p-id="20399" width="50" height="50"><path d="M707.27168 76.8H315.77088C235.02848 76.8 168.96 142.86336 168.96 223.61088v679.0144c0 25.38496 26.624 41.97376 49.41312 30.77632l591.24224-296.44288a79.54432 79.54432 0 0 0 44.47232-71.3984V223.61088C854.08768 142.86336 788.0192 76.8 707.27168 76.8z m-42.81856 330.32704H358.59456c-20.18816 0-36.70528-16.51712-36.70528-36.70528 0-20.18816 16.51712-36.70528 36.70528-36.70528h305.85856c20.18816 0 36.70528 16.51712 36.70528 36.70528 0 20.18816-16.51712 36.70528-36.70528 36.70528z" fill="#24a7ec" opacity=".3" p-id="20400"></path><path d="M707.27168 76.8H315.77088C235.02848 76.8 168.96 142.86336 168.96 223.61088v341.94944a79.54944 79.54944 0 0 0 44.47232 71.3984l591.24224 296.44288c22.784 11.19232 49.41312-5.39136 49.41312-30.77632V223.61088C854.08768 142.86336 788.0192 76.8 707.27168 76.8z m-42.81856 330.32704H358.59456c-20.18816 0-36.70528-16.51712-36.70528-36.70528 0-20.18816 16.51712-36.70528 36.70528-36.70528h305.85856c20.18816 0 36.70528 16.51712 36.70528 36.70528 0 20.18816-16.51712 36.70528-36.70528 36.70528z" fill="#24a7ec" p-id="20401"></path></svg>